# xmcd
#
# Track frame offsets: 
#        150
#        11971
#        34035
#        55560
#        71090
#        79786
#        94965
#        108221
#        116055
#        147495
#        156570
#        165698
#        173092
#        188058
#        195745
#        201584
#        217603
#        224761
#        240392
#        257817
#        274272
#
# Disc length: 3759 seconds
#
# Revision: 0
# Processed by: cddbd v1.5.2PL0 Copyright (c) Steve Scherf et al.
# Submitted via: ExactAudioCopy v0.95b2
#
DISCID=3d0ead15
DTITLE=Wygibusy - Bez retuszu (DVD)
DYEAR=2015
DGENRE=Acid Jazz
TTITLE0=Graj kapelo
TTITLE1=Wiazanka lwowska
TTITLE2=Wiazanka warszawska
TTITLE3=Zwierzynieckie piwo
TTITLE4=Zolty jesienny lisc
TTITLE5=Tango ze Stachem
TTITLE6=Najlepszy piwa jest kufelek
TTITLE7=Zapiekanki
TTITLE8=Walczyk o Bilgoraju
TTITLE9=Tam daleko pod lasem
TTITLE10=Wiazanka country
TTITLE11=Na sianeczku sianie
TTITLE12=Malo jej zawsze malo
TTITLE13=Tych lat nie odda nikt
TTITLE14=Jimie Joe
TTITLE15=Akropolis adieu
TTITLE16=Dzieci Pireusu
TTITLE17=Orkiestry dete
TTITLE18=Ach ta noc
TTITLE19=Piosenka o sasiedzie
TTITLE20=Pozegnanie
EXTD=
EXTT0=
EXTT1=
EXTT2=
EXTT3=
EXTT4=
EXTT5=
EXTT6=
EXTT7=
EXTT8=
EXTT9=
EXTT10=
EXTT11=
EXTT12=
EXTT13=
EXTT14=
EXTT15=
EXTT16=
EXTT17=
EXTT18=
EXTT19=
EXTT20=
PLAYORDER=
